<?xml version="1.0" encoding="UTF-8" standalone="no"?>
<svg
   xmlns:dc="http://purl.org/dc/elements/1.1/"
   xmlns:cc="http://creativecommons.org/ns#"
   xmlns:rdf="http://www.w3.org/1999/02/22-rdf-syntax-ns#"
   xmlns:svg="http://www.w3.org/2000/svg"
   xmlns="http://www.w3.org/2000/svg"
   xmlns:sodipodi="http://sodipodi.sourceforge.net/DTD/sodipodi-0.dtd"
   xmlns:inkscape="http://www.inkscape.org/namespaces/inkscape"
   width="207.26576mm"
   height="239.83647mm"
   viewBox="0 0 207.26576 239.83647"
   version="1.1"
   id="svg1865"
   inkscape:version="1.0.1 (3bc2e813f5, 2020-09-07)"
   sodipodi:docname="ffopportunity.svg"
   inkscape:export-filename="C:\Users\Tan\Documents\GitHub\_dynastyprocess\graphics\packages\ffexpect\ffexpect_hex.png"
   inkscape:export-xdpi="53.799999"
   inkscape:export-ydpi="53.799999">
  <defs
     id="defs1859" />
  <sodipodi:namedview
     id="base"
     pagecolor="#ffffff"
     bordercolor="#666666"
     borderopacity="1.0"
     inkscape:pageopacity="0.0"
     inkscape:pageshadow="2"
     inkscape:zoom="1.979899"
     inkscape:cx="569.65857"
     inkscape:cy="438.26555"
     inkscape:document-units="mm"
     inkscape:current-layer="layer1"
     inkscape:document-rotation="0"
     showgrid="false"
     inkscape:window-width="1920"
     inkscape:window-height="1017"
     inkscape:window-x="1912"
     inkscape:window-y="-8"
     inkscape:window-maximized="1" />
  <metadata
     id="metadata1862">
    <rdf:RDF>
      <cc:Work
         rdf:about="">
        <dc:format>image/svg+xml</dc:format>
        <dc:type
           rdf:resource="http://purl.org/dc/dcmitype/StillImage" />
        <dc:title />
      </cc:Work>
    </rdf:RDF>
  </metadata>
  <g
     inkscape:label="Layer 1"
     inkscape:groupmode="layer"
     id="layer1"
     transform="translate(-1.4445066,-31.272247)">
    <text
       xml:space="preserve"
       style="font-weight:bold;font-size:176.389px;line-height:1.25;font-family:'IBM Plex Sans';-inkscape-font-specification:'IBM Plex Sans Bold';fill:#333333;fill-opacity:1;stroke:#e5e5e5;stroke-width:1;stroke-miterlimit:4;stroke-dasharray:none;stroke-opacity:1"
       x="246.06293"
       y="207.88695"
       id="text929"
       inkscape:export-filename="C:\Users\Tan\Documents\GitHub\_dynastyprocess\graphics\packages\ffpros\ffpros-header.png"
       inkscape:export-xdpi="51.049999"
       inkscape:export-ydpi="51.049999"><tspan
         sodipodi:role="line"
         id="tspan927"
         x="246.06293"
         y="207.88695"
         style="font-style:normal;font-variant:normal;font-weight:bold;font-stretch:normal;font-size:176.389px;font-family:'Bai Jamjuree';-inkscape-font-specification:'Bai Jamjuree Bold';fill:#333333;fill-opacity:1;stroke:#f2f2f2;stroke-width:1;stroke-miterlimit:4;stroke-dasharray:none;stroke-opacity:1">ffopportunity</tspan></text>
    <path
       transform="matrix(-0.95583528,0,0,0.95788252,268.07243,-240.85729)"
       inkscape:export-ydpi="51.049999"
       inkscape:export-xdpi="51.049999"
       inkscape:randomized="0"
       inkscape:rounded="0"
       inkscape:flatsided="true"
       sodipodi:arg2="3.1415491"
       sodipodi:arg1="2.6179504"
       sodipodi:r2="85.672287"
       sodipodi:r1="120.00529"
       sodipodi:cy="409.28586"
       sodipodi:cx="170.52629"
       sodipodi:sides="6"
       id="path821-9-6-2"
       style="fill:#333333;fill-opacity:1;stroke:#d31027;stroke-width:8.98185;stroke-linecap:round;stroke-linejoin:miter;stroke-miterlimit:4;stroke-dasharray:none;stroke-opacity:1;paint-order:normal"
       sodipodi:type="star"
       d="m 66.601273,469.29302 -0.0052,-120.00529 103.925015,-60.00716 103.93024,59.99813 0.005,120.00528 -103.92502,60.00717 z"
       inkscape:export-filename="C:\Users\Tan\Documents\GitHub\_dynastyprocess\graphics\packages\ffpros\ffpros-header.png" />
    <path
       d="M 105.87871,157.37394 H 86.502129 l -3.94708,-8.79154 c -0.53815,-1.2565 -1.97361,-2.15258 -3.40916,-2.15258 -1.43556,0 -2.69068,0.89732 -3.40916,2.15258 l -10.40594,23.14487 -11.66119,-32.11488 c -0.53814,-1.43546 -1.79464,-2.33274 -3.22879,-2.5117 -1.43546,-0.17897 -2.87089,0.7171 -3.58793,1.9736 l -9.32978,18.29913 h -13.8151 c -1.973612,0 -3.768322,1.61443 -3.768322,3.76831 0,1.97361 1.61443,3.76831 3.768322,3.76831 h 16.1465 c 1.43546,0 2.69068,-0.7171 3.22879,-1.9736 l 6.45886,-12.73895 11.84155,32.65312 c 0.53814,1.43546 1.79464,2.33275 3.2288,2.51171 h 0.17896 c 1.43546,0 2.69068,-0.89732 3.40915,-2.15257 l 10.94418,-23.86189 1.61443,3.58793 c 0.53815,1.2565 1.97361,2.15257 3.40917,2.15257 h 21.709571 c 1.97361,0 3.7683,-1.61442 3.7683,-3.76831 0,-2.15256 -1.61441,-3.94707 -3.76702,-3.94707 z"
       id="path66"
       style="fill:#d31027;fill-opacity:1;stroke-width:0.320379" />
    <path
       d="m 91.46535,154.31569 c 0.366889,-1.23065 0.892037,-1.86238 1.507033,-1.89259 l 16.486847,-0.18348 c 1.19904,0.0434 2.25605,2.82451 2.34721,6.35849 0.0913,3.53394 -0.76522,6.40681 -1.96422,6.3634 l -16.524587,0.084 c -1.19904,-0.0434 -2.256061,-2.82447 -2.347299,-6.35823 -0.05725,-1.61518 0.158954,-3.2434 0.495342,-4.37172 z"
       id="path82-2"
       style="fill:#d31027;fill-opacity:1;stroke-width:0.148416" />
    <g
       id="g2524"
       transform="matrix(-1,0,0,1,214.68496,1.6036172)">
      <circle
         style="opacity:0.999;fill:#333333;fill-opacity:0.5;stroke:none;stroke-width:4.83754;stroke-linecap:round;stroke-linejoin:round;stroke-miterlimit:4;stroke-dasharray:none"
         id="path2512"
         cx="-77.443726"
         cy="142.02382"
         r="45.711945"
         transform="scale(-1,1)" />
      <path
         d="m 111.33109,182.09067 0.62847,-0.61264 c 9.34865,-8.50563 15.3279,-19.91804 16.88668,-32.43335 C 132.42126,120.34107 111.9373,94.028628 83.233701,90.453603 54.530095,86.878578 28.217653,107.36254 24.642624,136.06615 c -3.575019,28.70361 16.90894,55.01604 45.612555,58.59106 11.699098,1.45712 23.327966,-0.9626 33.476871,-7.02006 l 0.59455,-0.34032 v 0 z m -40.024596,4.13287 C 47.227871,183.22455 30.078783,161.19531 33.077704,137.11718 36.076625,113.03904 58.105929,95.889465 82.18406,98.888389 c 24.07813,2.998921 41.22771,25.028221 38.22879,49.106361 -2.99893,24.07813 -25.02822,41.22771 -49.106356,38.22879 z"
         id="path64"
         style="fill:#cccccc;stroke-width:0.244798"
         sodipodi:nodetypes="ccsssscccccsssss" />
    </g>
    <g
       inkscape:export-ydpi="51.049999"
       inkscape:export-xdpi="51.049999"
       style="fill:#d31027;fill-opacity:1;stroke:#000000;stroke-width:3.50768"
       id="g14-39-6-0-0"
       transform="matrix(0.05252578,0.0203136,-0.02024373,0.05314646,124.34835,109.44369)"
       inkscape:export-filename="C:\Users\Tan\Documents\GitHub\_dynastyprocess\graphics\packages\ffpros\ffpros-header.png">
      <g
         style="fill:#d31027;fill-opacity:1;stroke:#000000;stroke-width:3.50768"
         id="g12-2-9-0-8"
         transform="matrix(0.0997661,-0.00658435,-0.00663306,-0.09979668,1.9631403,544.88388)">
        <path
           style="fill:#d31027;fill-opacity:1;stroke:#000000;stroke-width:3.50768"
           id="path4-6-5-2"
           d="m 7412.9,5004.9 c -120.7,-7.7 -291.2,-19.2 -377.5,-26.8 l -157.1,-15.3 306.6,-183.9 c 1086.4,-659.1 1904.5,-1454.2 2513.8,-2452.4 130.3,-212.7 143.7,-229.9 153.3,-182 5.7,30.6 23,264.4 34.5,523.1 32.6,620.8 3.8,1444.6 -55.6,1609.4 -65.1,187.8 -120.7,274 -260.6,413.8 -233.7,233.7 -387,291.2 -854.5,314.2 -377.5,21 -971.5,19.1 -1302.9,-0.1 z"
           inkscape:connector-curvature="0" />
        <path
           style="fill:#d31027;fill-opacity:1;stroke:#000000;stroke-width:3.50768"
           id="path6-4-6-9"
           d="M 5592.7,4707.9 C 4397.1,4357.3 3387.4,3736.5 2383.4,2732.5 1385.2,1732.4 751,703.5 406.1,-484.4 c -36.4,-126.4 -67.1,-256.7 -69,-289.3 -1.9,-74.7 333.4,-756.8 513.5,-1042.3 145.6,-229.9 335.3,-498.2 352.5,-498.2 5.8,1.9 67.1,101.5 136,224.2 124.5,222.2 538.4,864.1 689.8,1069.1 l 80.5,109.2 -212.6,214.7 c -182,183.9 -212.7,226.1 -212.7,277.8 0,82.4 72.8,155.2 155.2,155.2 51.7,0 92,-30.7 258.7,-195.4 l 199.2,-193.6 42.2,55.6 c 24.9,30.6 105.4,132.2 182,228 l 136,172.4 -222.2,224.2 c -203.1,205 -222.3,231.8 -222.3,295.1 0,53.6 13.4,80.5 55.6,116.9 90.1,78.5 143.7,53.6 383.2,-185.9 l 210.8,-208.8 176.3,205 176.3,205 -220.3,222.3 c -193.5,197.3 -218.4,229.9 -218.4,289.3 0,86.2 65.1,149.4 153.3,149.4 55.6,0 90.1,-26.8 277.8,-210.8 116.9,-115 218.4,-210.8 224.2,-210.8 5.7,0 93.9,90.1 197.3,201.2 l 187.8,203.1 -214.8,216.5 c -187.8,191.6 -212.7,224.2 -212.7,283.6 0,86.2 65.1,149.4 153.3,149.4 55.6,0 92,-26.8 279.7,-212.7 l 216.5,-214.6 149.4,136 c 82.4,72.8 174.4,160.9 205,193.5 l 57.5,59.4 -205,208.8 c -185.9,185.9 -205,214.6 -205,277.8 0,92 53.6,145.6 147.5,145.6 63.2,0 90,-19.2 285.5,-212.7 l 214.6,-212.7 193.5,168.6 193.5,168.6 -201.2,205 c -189.7,191.6 -201.2,206.9 -201.2,281.6 0,61.3 11.5,86.2 49.8,116.9 95.8,74.7 130.3,57.5 371.7,-182 l 226.1,-222.3 197.3,159 c 109.2,86.2 206.9,164.8 218.4,174.4 11.5,9.6 -55.6,90 -168.6,203.1 -220.3,222.3 -243.3,275.9 -151.4,367.9 99.6,99.6 136,84.3 377.5,-155.2 l 214.6,-210.8 293.1,201.2 c 306.6,212.7 745.3,492.4 963.7,613.1 70.9,40.2 128.4,80.5 128.4,90.1 0,24.9 -454.1,320 -737.6,479 -281.7,157.1 -779.8,400.4 -818.1,400.4 -13.3,-1.6 -124.4,-30.4 -245.1,-66.8 z"
           inkscape:connector-curvature="0" />
        <path
           style="fill:#d31027;fill-opacity:1;stroke:#000000;stroke-width:3.50768"
           id="path8-6-2-2"
           d="M 7401.4,3527.7 C 7000.9,3292 6361,2876.3 6255.6,2780.5 c -11.5,-9.6 51.7,-90 157.1,-197.3 147.5,-149.5 176.3,-187.8 176.3,-239.5 0,-82.4 -72.8,-155.2 -155.2,-155.2 -51.7,0 -92,30.7 -258.7,193.5 l -197.4,193.5 -201.2,-155.2 c -111.1,-86.2 -206.9,-166.7 -214.6,-176.3 -7.7,-11.5 61.3,-95.8 153.3,-187.8 147.5,-147.5 164.8,-172.4 164.8,-235.7 0,-53.6 -11.5,-80.5 -49.8,-109.2 -97.7,-76.6 -145.6,-57.5 -348.7,139.9 l -187.8,182 -185.8,-162.9 c -101.5,-90 -185.8,-168.6 -185.8,-176.3 0,-5.8 72.8,-86.2 162.9,-178.2 143.7,-145.6 162.9,-174.4 162.9,-235.7 0,-74.7 -51.7,-143.7 -109.2,-147.5 -88.1,-5.7 -122.6,15.3 -287.4,178.2 L 4677,1485.1 4473.9,1297.3 c -111.1,-105.4 -203.1,-193.5 -203.1,-199.3 0,-3.8 72.8,-84.3 162.9,-176.3 143.7,-145.6 162.9,-174.4 162.9,-235.7 0,-74.7 -51.7,-143.7 -111.1,-147.5 -84.3,-5.7 -120.7,15.3 -275.9,170.5 l -166.7,164.8 -42.2,-38.3 c -23,-19.2 -109.2,-113 -195.4,-205 L 3652,461.9 3818.7,293.3 c 134.1,-138 164.8,-180.1 164.8,-228 0,-88.1 -19.2,-120.7 -84.3,-147.5 -84.3,-36.4 -132.2,-9.6 -308.5,164.8 L 3435.5,233.9 3259,31.1 l -178.2,-205 172.4,-176.3 c 195.4,-199.2 216.5,-256.7 126.5,-344.9 -88.1,-90.1 -147.5,-69 -335.3,115 l -166.7,162.9 -160.9,-205 c -90,-115 -170.5,-218.4 -178.2,-233.7 -11.5,-17.2 38.3,-80.5 168.6,-210.8 220.3,-220.3 241.4,-274 147.5,-367.9 -92,-92 -147.5,-70.9 -348.7,128.4 -92,92 -174.4,160.9 -185.8,153.3 -49.8,-30.7 -544.1,-793.2 -768.3,-1186 l -139.9,-243.4 95.8,-111.1 c 51.7,-59.4 197.4,-208.8 321.9,-329.6 548,-530.7 1207.1,-982.9 1994.5,-1366.1 l 314.2,-151.4 128.4,32.6 c 208.8,51.7 580.5,176.3 825.8,277.8 992.5,408.1 1860.4,1032.7 2764.8,1992.6 867.9,917.8 1440.8,1912.1 1749.3,3023.4 l 65.1,235.7 -72.8,168.6 c -394.7,892.8 -986.7,1701.4 -1688,2304.9 -120.7,103.5 -224.2,187.8 -229.9,187.8 -7.7,0 -132.2,-70.9 -279.7,-155.2 z"
           inkscape:connector-curvature="0" />
        <path
           style="fill:#d31027;fill-opacity:1;stroke:#000000;stroke-width:3.50768"
           id="path10-9-8-47"
           d="m 143.7,-1898.3 c -34.5,-130.3 -55.6,-1013.6 -36.4,-1509.8 19.2,-482.8 24.9,-534.6 67.1,-653.3 130.3,-350.6 417.7,-601.6 770.2,-674.4 285.5,-61.3 1645.8,-57.5 2075,3.8 l 92,13.4 -162.9,93.9 c -249.1,141.8 -731.9,469.4 -965.6,651.4 -689.9,540.3 -1257,1176.4 -1703.4,1912.1 -103.5,170.5 -126.5,197.3 -136,162.9 z"
           inkscape:connector-curvature="0" />
      </g>
    </g>
    <path
       d="m 73.292529,219.60362 c -0.137237,-1.36356 0.357971,-2.7134 1.37222,-3.91609 l 27.573781,-31.90875 c 2.04008,-2.29041 5.51754,-2.84821 7.83391,-1.14133 2.31641,1.70677 2.63681,4.8898 0.59679,7.18011 l -27.698014,31.92861 c -2.04007,2.2904 -5.51752,2.84823 -7.83388,1.14164 -1.084917,-0.74998 -1.718487,-2.03466 -1.84429,-3.28486 z"
       id="path82"
       style="fill:#cccccc;stroke-width:0.213831" />
    <path
       transform="matrix(-0.95583528,0,0,0.95788252,47.910038,-239.9697)"
       inkscape:export-ydpi="51.049999"
       inkscape:export-xdpi="51.049999"
       inkscape:randomized="0"
       inkscape:rounded="0"
       inkscape:flatsided="true"
       sodipodi:arg2="3.1415491"
       sodipodi:arg1="2.6179504"
       sodipodi:r2="85.672287"
       sodipodi:r1="120.00529"
       sodipodi:cy="409.28586"
       sodipodi:cx="170.52629"
       sodipodi:sides="6"
       id="path821-9-6-2-8"
       style="fill:#333333;fill-opacity:1;stroke:#d31027;stroke-width:8.98185;stroke-linecap:round;stroke-linejoin:miter;stroke-miterlimit:4;stroke-dasharray:none;stroke-opacity:1;paint-order:normal"
       sodipodi:type="star"
       d="m 66.601273,469.29302 -0.0052,-120.00529 103.925015,-60.00716 103.93024,59.99813 0.005,120.00528 -103.92502,60.00717 z"
       inkscape:export-filename="C:\Users\Tan\Documents\GitHub\_dynastyprocess\graphics\packages\ffpros\ffpros-header.png" />
    <circle
       style="opacity:0.999;fill:#333333;fill-opacity:0.5;stroke:none;stroke-width:4.83754;stroke-linecap:round;stroke-linejoin:round;stroke-miterlimit:4;stroke-dasharray:none"
       id="path2512-4"
       cx="149.41266"
       cy="142.0502"
       r="45.711948"
       transform="scale(-1,1)" />
    <path
       d="m -90.342102,153.90386 h -27.267448 l -5.55447,-8.79154 c -0.7573,-1.25649 -2.77733,-2.15257 -4.79749,-2.15257 -2.02017,0 -3.78643,0.89731 -4.7975,2.15257 l -14.64362,23.14488 -16.41005,-32.11489 c -0.75729,-1.43546 -2.52549,-2.33273 -4.54367,-2.5117 -2.02003,-0.17897 -4.04002,0.7171 -5.04907,1.97361 l -13.12921,18.29912 h -19.44111 c -2.77734,0 -5.30292,1.61444 -5.30292,3.76832 0,1.9736 2.27188,3.76831 5.30292,3.76831 h 22.72194 c 2.02004,0 3.78643,-0.7171 4.54368,-1.97361 l 9.08914,-12.73895 16.66386,32.65313 c 0.75729,1.43546 2.52549,2.33274 4.54369,2.5117 h 0.25184 c 2.02003,0 3.78642,-0.89731 4.79748,-2.15256 l 15.40105,-23.8619 2.27188,3.58794 c 0.75731,1.25649 2.77734,2.15256 4.79751,2.15256 h 30.550518 c 2.77733,0 5.30289,-1.61441 5.30289,-3.76831 0,-2.15256 -2.27186,-3.94707 -5.30109,-3.94707 z"
       id="path66-2"
       style="fill:#d31027;fill-opacity:1;stroke-width:0.380055" />
    <g
       inkscape:export-ydpi="51.049999"
       inkscape:export-xdpi="51.049999"
       style="fill:#d31027;fill-opacity:1;stroke:#000000;stroke-width:3.50768"
       id="g14-39-6-0-0-3"
       transform="matrix(0.05252578,0.0203136,-0.02024373,0.05314646,-72.027052,102.58047)"
       inkscape:export-filename="C:\Users\Tan\Documents\GitHub\_dynastyprocess\graphics\packages\ffpros\ffpros-header.png">
      <g
         style="fill:#d31027;fill-opacity:1;stroke:#000000;stroke-width:3.50768"
         id="g12-2-9-0-8-3"
         transform="matrix(0.0997661,-0.00658435,-0.00663306,-0.09979668,1.9631403,544.88388)">
        <path
           style="fill:#d31027;fill-opacity:1;stroke:#000000;stroke-width:3.50768"
           id="path4-6-5-2-3"
           d="m 7412.9,5004.9 c -120.7,-7.7 -291.2,-19.2 -377.5,-26.8 l -157.1,-15.3 306.6,-183.9 c 1086.4,-659.1 1904.5,-1454.2 2513.8,-2452.4 130.3,-212.7 143.7,-229.9 153.3,-182 5.7,30.6 23,264.4 34.5,523.1 32.6,620.8 3.8,1444.6 -55.6,1609.4 -65.1,187.8 -120.7,274 -260.6,413.8 -233.7,233.7 -387,291.2 -854.5,314.2 -377.5,21 -971.5,19.1 -1302.9,-0.1 z"
           inkscape:connector-curvature="0" />
        <path
           style="fill:#d31027;fill-opacity:1;stroke:#000000;stroke-width:3.50768"
           id="path6-4-6-9-2"
           d="M 5592.7,4707.9 C 4397.1,4357.3 3387.4,3736.5 2383.4,2732.5 1385.2,1732.4 751,703.5 406.1,-484.4 c -36.4,-126.4 -67.1,-256.7 -69,-289.3 -1.9,-74.7 333.4,-756.8 513.5,-1042.3 145.6,-229.9 335.3,-498.2 352.5,-498.2 5.8,1.9 67.1,101.5 136,224.2 124.5,222.2 538.4,864.1 689.8,1069.1 l 80.5,109.2 -212.6,214.7 c -182,183.9 -212.7,226.1 -212.7,277.8 0,82.4 72.8,155.2 155.2,155.2 51.7,0 92,-30.7 258.7,-195.4 l 199.2,-193.6 42.2,55.6 c 24.9,30.6 105.4,132.2 182,228 l 136,172.4 -222.2,224.2 c -203.1,205 -222.3,231.8 -222.3,295.1 0,53.6 13.4,80.5 55.6,116.9 90.1,78.5 143.7,53.6 383.2,-185.9 l 210.8,-208.8 176.3,205 176.3,205 -220.3,222.3 c -193.5,197.3 -218.4,229.9 -218.4,289.3 0,86.2 65.1,149.4 153.3,149.4 55.6,0 90.1,-26.8 277.8,-210.8 116.9,-115 218.4,-210.8 224.2,-210.8 5.7,0 93.9,90.1 197.3,201.2 l 187.8,203.1 -214.8,216.5 c -187.8,191.6 -212.7,224.2 -212.7,283.6 0,86.2 65.1,149.4 153.3,149.4 55.6,0 92,-26.8 279.7,-212.7 l 216.5,-214.6 149.4,136 c 82.4,72.8 174.4,160.9 205,193.5 l 57.5,59.4 -205,208.8 c -185.9,185.9 -205,214.6 -205,277.8 0,92 53.6,145.6 147.5,145.6 63.2,0 90,-19.2 285.5,-212.7 l 214.6,-212.7 193.5,168.6 193.5,168.6 -201.2,205 c -189.7,191.6 -201.2,206.9 -201.2,281.6 0,61.3 11.5,86.2 49.8,116.9 95.8,74.7 130.3,57.5 371.7,-182 l 226.1,-222.3 197.3,159 c 109.2,86.2 206.9,164.8 218.4,174.4 11.5,9.6 -55.6,90 -168.6,203.1 -220.3,222.3 -243.3,275.9 -151.4,367.9 99.6,99.6 136,84.3 377.5,-155.2 l 214.6,-210.8 293.1,201.2 c 306.6,212.7 745.3,492.4 963.7,613.1 70.9,40.2 128.4,80.5 128.4,90.1 0,24.9 -454.1,320 -737.6,479 -281.7,157.1 -779.8,400.4 -818.1,400.4 -13.3,-1.6 -124.4,-30.4 -245.1,-66.8 z"
           inkscape:connector-curvature="0" />
        <path
           style="fill:#d31027;fill-opacity:1;stroke:#000000;stroke-width:3.50768"
           id="path8-6-2-2-8"
           d="M 7401.4,3527.7 C 7000.9,3292 6361,2876.3 6255.6,2780.5 c -11.5,-9.6 51.7,-90 157.1,-197.3 147.5,-149.5 176.3,-187.8 176.3,-239.5 0,-82.4 -72.8,-155.2 -155.2,-155.2 -51.7,0 -92,30.7 -258.7,193.5 l -197.4,193.5 -201.2,-155.2 c -111.1,-86.2 -206.9,-166.7 -214.6,-176.3 -7.7,-11.5 61.3,-95.8 153.3,-187.8 147.5,-147.5 164.8,-172.4 164.8,-235.7 0,-53.6 -11.5,-80.5 -49.8,-109.2 -97.7,-76.6 -145.6,-57.5 -348.7,139.9 l -187.8,182 -185.8,-162.9 c -101.5,-90 -185.8,-168.6 -185.8,-176.3 0,-5.8 72.8,-86.2 162.9,-178.2 143.7,-145.6 162.9,-174.4 162.9,-235.7 0,-74.7 -51.7,-143.7 -109.2,-147.5 -88.1,-5.7 -122.6,15.3 -287.4,178.2 L 4677,1485.1 4473.9,1297.3 c -111.1,-105.4 -203.1,-193.5 -203.1,-199.3 0,-3.8 72.8,-84.3 162.9,-176.3 143.7,-145.6 162.9,-174.4 162.9,-235.7 0,-74.7 -51.7,-143.7 -111.1,-147.5 -84.3,-5.7 -120.7,15.3 -275.9,170.5 l -166.7,164.8 -42.2,-38.3 c -23,-19.2 -109.2,-113 -195.4,-205 L 3652,461.9 3818.7,293.3 c 134.1,-138 164.8,-180.1 164.8,-228 0,-88.1 -19.2,-120.7 -84.3,-147.5 -84.3,-36.4 -132.2,-9.6 -308.5,164.8 L 3435.5,233.9 3259,31.1 l -178.2,-205 172.4,-176.3 c 195.4,-199.2 216.5,-256.7 126.5,-344.9 -88.1,-90.1 -147.5,-69 -335.3,115 l -166.7,162.9 -160.9,-205 c -90,-115 -170.5,-218.4 -178.2,-233.7 -11.5,-17.2 38.3,-80.5 168.6,-210.8 220.3,-220.3 241.4,-274 147.5,-367.9 -92,-92 -147.5,-70.9 -348.7,128.4 -92,92 -174.4,160.9 -185.8,153.3 -49.8,-30.7 -544.1,-793.2 -768.3,-1186 l -139.9,-243.4 95.8,-111.1 c 51.7,-59.4 197.4,-208.8 321.9,-329.6 548,-530.7 1207.1,-982.9 1994.5,-1366.1 l 314.2,-151.4 128.4,32.6 c 208.8,51.7 580.5,176.3 825.8,277.8 992.5,408.1 1860.4,1032.7 2764.8,1992.6 867.9,917.8 1440.8,1912.1 1749.3,3023.4 l 65.1,235.7 -72.8,168.6 c -394.7,892.8 -986.7,1701.4 -1688,2304.9 -120.7,103.5 -224.2,187.8 -229.9,187.8 -7.7,0 -132.2,-70.9 -279.7,-155.2 z"
           inkscape:connector-curvature="0" />
        <path
           style="fill:#d31027;fill-opacity:1;stroke:#000000;stroke-width:3.50768"
           id="path10-9-8-47-3"
           d="m 143.7,-1898.3 c -34.5,-130.3 -55.6,-1013.6 -36.4,-1509.8 19.2,-482.8 24.9,-534.6 67.1,-653.3 130.3,-350.6 417.7,-601.6 770.2,-674.4 285.5,-61.3 1645.8,-57.5 2075,3.8 l 92,13.4 -162.9,93.9 c -249.1,141.8 -731.9,469.4 -965.6,651.4 -689.9,540.3 -1257,1176.4 -1703.4,1912.1 -103.5,170.5 -126.5,197.3 -136,162.9 z"
           inkscape:connector-curvature="0" />
      </g>
    </g>
    <g
       id="g862"
       transform="translate(-219.09332,13.716536)">
      <path
         d="m 104.6371,181.22945 0.62847,-0.61264 c 9.34865,-8.50563 15.3279,-19.91804 16.88668,-32.43335 3.57502,-28.70361 -16.90894,-55.016052 -45.612539,-58.591077 -28.703606,-3.575025 -55.016048,16.908937 -58.591077,45.612547 -3.575019,28.70361 16.90894,55.01604 45.612555,58.59106 11.699098,1.45712 23.327966,-0.9626 33.476871,-7.02006 l 0.59455,-0.34032 v 0 z m -40.024596,4.13287 C 40.533881,182.36333 23.384793,160.33409 26.383714,136.25596 29.382635,112.17782 51.411939,95.028245 75.49007,98.027169 c 24.07813,2.998921 41.22771,25.028221 38.22879,49.106361 -2.99893,24.07813 -25.02822,41.22771 -49.106356,38.22879 z"
         id="path64-1"
         style="fill:#cccccc;stroke-width:0.244798"
         sodipodi:nodetypes="ccsssscccccsssss" />
      <path
         d="m 134.69844,217.13878 c 0.13724,-1.36356 -0.35797,-2.7134 -1.37222,-3.91609 l -27.57378,-31.90875 c -2.04008,-2.29041 -5.51754,-2.84821 -7.83391,-1.14133 -2.31641,1.70677 -2.63681,4.8898 -0.59679,7.18011 l 27.69801,31.92861 c 2.04007,2.2904 5.51752,2.84823 7.83388,1.14164 1.08492,-0.74998 1.71849,-2.03466 1.84429,-3.28486 z"
         id="path82-3"
         style="fill:#cccccc;stroke-width:0.213831" />
    </g>
  </g>
</svg>
